<svg width="37" height="37" viewBox="0 0 37 37" fill="none" xmlns="http://www.w3.org/2000/svg">
<path d="M7.18548 15.8468V11.9333H12.671L12.676 11.9335C12.6818 11.9338 12.692 11.9344 12.7061 11.9359C12.7344 11.9389 12.7775 11.9451 12.8304 11.9582C12.9365 11.9842 13.0786 12.0366 13.2206 12.1414C13.4924 12.3419 13.8162 12.7738 13.8162 13.7417C13.8162 14.7485 13.6129 15.2558 13.3597 15.5169C13.1116 15.773 12.7626 15.8468 12.3168 15.8468H7.18548ZM12.6728 19.4138V19.4138L12.6737 19.4138L12.674 19.4138L12.6746 19.4138L12.6755 19.4138L12.6871 19.4141C12.6984 19.4145 12.7165 19.4155 12.7405 19.4175C12.7885 19.4216 12.8595 19.4303 12.9456 19.4484C13.1186 19.4849 13.3479 19.5586 13.576 19.7064C14.0169 19.9921 14.5039 20.5869 14.5081 21.8796C14.508 22.9608 14.1518 23.5141 13.7469 23.8111C13.3275 24.1188 12.8065 24.1891 12.4107 24.2005H7.18548V19.4138H12.6728ZM24.2314 18.9013C24.2434 18.856 24.2574 18.8065 24.2736 18.7534C24.3564 18.4825 24.4964 18.1233 24.7245 17.7661C25.1756 17.0598 25.9711 16.3565 27.3927 16.3565C28.1111 16.3565 28.6299 16.5355 29.0085 16.7903C29.3886 17.0462 29.6431 17.3893 29.8139 17.7404C29.9852 18.0925 30.0698 18.4479 30.1111 18.7175C30.1215 18.7851 30.1291 18.8468 30.1346 18.9013H24.2314Z" stroke="black" stroke-width="0.509642"/>
<path d="M24.2284 22.0592H34.1885H34.1914H34.4152L34.4441 21.8373L34.1914 21.8044C34.4441 21.8373 34.4441 21.8371 34.4441 21.837L34.4442 21.8364L34.4444 21.8348L34.4451 21.8292L34.4475 21.8089C34.4495 21.7913 34.4523 21.7658 34.4556 21.7329C34.4621 21.6671 34.4705 21.5717 34.4782 21.4509C34.4936 21.2094 34.5063 20.8657 34.4961 20.4537C34.4758 19.6316 34.3638 18.5291 33.9934 17.4221C33.6227 16.3142 32.9895 15.1917 31.9209 14.347C30.8496 13.5002 29.3622 12.9495 27.315 12.951M24.2284 22.0592L27.3152 12.951C27.3151 12.951 27.3151 12.951 27.315 12.951M24.2284 22.0592C24.2644 22.8064 24.4586 23.3543 24.7239 23.7585C25.0188 24.208 25.4127 24.497 25.8134 24.6833C26.2157 24.8703 26.6215 24.9522 26.9295 24.9866C27.0828 25.0038 27.21 25.009 27.2978 25.0099C27.3417 25.0104 27.3756 25.0098 27.3979 25.0092L27.4223 25.0083L27.4276 25.008L27.428 25.008L27.4282 25.008L27.4283 25.008L27.4284 25.008L27.4362 25.0075H27.4444C29.0262 25.0075 29.7271 24.4972 30.0465 24.0484C30.2108 23.8174 30.2863 23.5865 30.3206 23.4135C30.3378 23.3271 30.3445 23.2561 30.347 23.2083C30.3482 23.1844 30.3484 23.1665 30.3483 23.1555L30.3482 23.1446L30.3481 23.1445C30.3481 23.1443 30.3481 23.1444 30.3481 23.1443C30.3481 23.1441 30.3481 23.1438 30.3481 23.1437C30.3481 23.1434 30.3481 23.1436 30.3481 23.1435C30.3481 23.1434 30.3481 23.1431 30.3481 23.1431L30.3326 22.8751H30.6026H34.0737H34.3285V23.1299C34.3285 24.5997 33.888 25.6955 33.2133 26.5042C32.5421 27.3087 31.6535 27.812 30.781 28.127C29.9082 28.4422 29.0396 28.5735 28.392 28.6266C28.0675 28.6532 27.7967 28.6603 27.6062 28.6608C27.5109 28.661 27.4356 28.6595 27.3835 28.658C27.3575 28.6572 27.3373 28.6564 27.3234 28.6558L27.3086 28.6551C25.2433 28.6541 23.7071 28.1706 22.5688 27.4297C21.4298 26.6884 20.7062 25.7004 20.2486 24.7187C19.7918 23.7388 19.5985 22.7624 19.5188 22.0336C19.4788 21.6686 19.4672 21.3639 19.4656 21.1493C19.4648 21.042 19.4665 20.9571 19.4684 20.8984C19.4694 20.8691 19.4704 20.8462 19.4713 20.8304L19.4722 20.8131L19.4724 20.7958C19.4727 20.78 19.4732 20.7572 19.4742 20.7278C19.4761 20.669 19.48 20.584 19.4876 20.4764C19.5029 20.2614 19.5334 19.956 19.5942 19.59C19.7155 18.8594 19.9586 17.8813 20.4474 16.9002C20.9367 15.918 21.6747 14.928 22.7866 14.184C23.9 13.439 25.3733 12.951 27.315 12.951M24.2284 22.0592L27.315 12.951M23.066 9.06664H22.8112V9.32146V11.765V12.0198H23.066H31.2141H31.4689V11.765V9.32146V9.06664H31.2141H23.066ZM17.6691 17.7818C17.3341 17.4918 16.931 17.2603 16.4488 17.116C16.5943 17.0466 16.7451 16.9632 16.8962 16.8632C17.7195 16.3178 18.5176 15.2959 18.5176 13.4334C18.5176 11.595 17.8764 10.2012 16.8064 9.2704C15.7416 8.34416 14.2792 7.8996 12.6728 7.8996H2.39444H2.13962V8.15442V27.9796V28.2344H2.39444H12.6695L12.6712 28.2345L12.6867 28.2348C12.6926 28.2349 12.6997 28.2349 12.7079 28.235C12.718 28.2351 12.7299 28.2352 12.7434 28.2352C12.7922 28.2351 12.8627 28.2343 12.9518 28.231C13.1299 28.2243 13.3828 28.2079 13.6856 28.1688C14.2899 28.0908 15.1003 27.9217 15.9141 27.5549C16.7289 27.1878 17.5535 26.6196 18.174 25.7415C18.7951 24.8625 19.1998 23.6895 19.2009 22.1334L19.2013 22.124C19.2018 22.1135 19.2023 22.0985 19.2029 22.0793C19.204 22.0408 19.2051 21.9853 19.205 21.9152C19.2047 21.7752 19.1998 21.5763 19.1811 21.3382C19.1438 20.8633 19.0512 20.225 18.8279 19.5826C18.6047 18.9407 18.2463 18.2816 17.6691 17.7818ZM4.9468 0.712585H32.0782C33.1208 0.713324 34.1206 1.12951 34.8578 1.86996C35.5951 2.61046 36.0095 3.61469 36.0095 4.66197V31.8899C36.0095 32.9376 35.5947 33.9423 34.8569 34.6828C34.119 35.4234 33.1185 35.8393 32.0754 35.8393H4.9468C3.90373 35.8393 2.90319 35.4234 2.16534 34.6828C1.42746 33.9423 1.01276 32.9376 1.01276 31.8899V4.66197C1.01276 3.61423 1.42746 2.60958 2.16534 1.869C2.90319 1.12845 3.90373 0.712585 4.9468 0.712585Z" stroke="black" stroke-width="0.509642"/>
</svg>
