<svg width="36" height="37" viewBox="0 0 36 37" fill="none" xmlns="http://www.w3.org/2000/svg">
<path d="M31.0692 31.394H31.3241V31.1391V20.6349C31.3241 18.854 30.6192 17.1459 29.3642 15.8863C28.1092 14.6267 26.4069 13.9189 24.6317 13.9189C23.1122 13.9189 21.39 14.7156 20.3052 15.9732V14.5503V14.2955H20.0503H14.5409H14.2861V14.5503V31.1391V31.394H14.5409H20.0503H20.3052V31.1391V21.3682C20.3052 19.9796 21.4186 18.8483 22.7952 18.8483C23.4605 18.8483 24.0988 19.1136 24.5695 19.586C25.0403 20.0585 25.305 20.6996 25.305 21.3682V31.1391V31.394H25.5598H31.0692ZM10.8679 31.394H11.1227V31.1391V14.5503V14.2955H10.8679H5.39798H5.14316V14.5503V31.1391V31.394H5.39798H10.8679ZM32.0566 0.673895C33.0362 0.673895 33.9758 1.06444 34.6687 1.75992C35.3617 2.45544 35.7512 3.39895 35.7512 4.38295V32.1301C35.7512 33.1141 35.3617 34.0576 34.6687 34.7531C33.9758 35.4486 33.0362 35.8392 32.0566 35.8392H4.41062C3.43105 35.8392 2.49141 35.4486 1.79847 34.7531C1.10549 34.0576 0.716017 33.1141 0.716017 32.1301V4.38295C0.716017 3.39895 1.10549 2.45544 1.79847 1.75992C2.49141 1.06444 3.43105 0.673895 4.41062 0.673895H32.0566ZM8.12308 11.6935C9.07082 11.6935 9.97956 11.3156 10.6494 10.6433C11.3193 9.97099 11.6954 9.05937 11.6954 8.109C11.6954 6.12792 10.1031 4.5047 8.12308 4.5047C7.1701 4.5047 6.25634 4.88467 5.58276 5.56071C4.90922 6.23672 4.53099 7.15338 4.53099 8.109C4.53099 10.094 6.14696 11.6935 8.12308 11.6935Z" stroke="black" stroke-width="0.509642"/>
</svg>
